<svg width="16" height="16" fill="none" xmlns="http://www.w3.org/2000/svg"><path fill-rule="evenodd" clip-rule="evenodd" d="M5.93 1.136a.466.466 0 0 1 .658 0c.048.048.103.095.18.16l.07.06c.105.09.231.202.35.335.244.273.467.65.467 1.171 0 .484-.194.99-.406 1.376a3.49 3.49 0 0 1-.354.53c-.112.136-.26.289-.428.373a.466.466 0 1 1-.416-.833.912.912 0 0 0 .125-.131c.08-.099.172-.232.257-.387.176-.32.291-.667.291-.928 0-.224-.087-.39-.23-.551a2.714 2.714 0 0 0-.262-.248L6.18 2.02c-.08-.068-.173-.147-.25-.224a.466.466 0 0 1 0-.659Zm-1.67 0a.466.466 0 1 0-.658.659c.077.077.17.156.25.224l.053.044c.098.085.185.163.26.248.144.16.232.327.232.551 0 .261-.116.608-.292.928a2.565 2.565 0 0 1-.257.387c-.068.082-.111.118-.123.128-.005.004-.005.004-.002.003a.466.466 0 0 0 .416.833c.168-.084.316-.237.428-.373a3.49 3.49 0 0 0 .354-.53c.212-.385.407-.892.407-1.376 0-.52-.223-.898-.468-1.171a3.61 3.61 0 0 0-.35-.335l-.07-.06c-.076-.065-.132-.112-.18-.16ZM3 6.121h7.448v.944c1.103-.073 2.793.112 2.793 1.935 0 1.824-1.69 2.419-2.793 2.613v.887a2 2 0 0 1-2 2H5a2 2 0 0 1-2-2V6.12Zm7.448 1.877v2.667c.198-.041.408-.097.613-.171.383-.14.699-.326.912-.558.195-.212.337-.497.337-.936 0-.436-.136-.615-.253-.713-.154-.13-.415-.234-.79-.28a4.218 4.218 0 0 0-.819-.009ZM9.381 1.136a.466.466 0 1 0-.658.659c.077.077.17.156.25.224l.052.044c.099.085.186.163.261.248.144.16.231.327.231.551 0 .261-.115.608-.291.928a2.565 2.565 0 0 1-.257.387c-.068.082-.111.118-.124.128-.004.004-.005.004-.001.003a.466.466 0 0 0 .416.833c.168-.084.316-.237.428-.373a3.49 3.49 0 0 0 .354-.53c.212-.385.406-.892.406-1.376 0-.52-.223-.898-.467-1.171a3.611 3.611 0 0 0-.35-.335l-.07-.06a3.118 3.118 0 0 1-.18-.16Z" fill="#fff"/></svg>