<svg width="16" height="16" fill="none" xmlns="http://www.w3.org/2000/svg"><path fill-rule="evenodd" clip-rule="evenodd" d="M5.177 1.6a.376.376 0 1 0 0 .753h5.647a.377.377 0 0 0 0-.753H5.177Zm5.223.753H5.6l.736 1.384a2.25 2.25 0 0 0-.6.874 2.136 2.136 0 0 0-.136.753c0 1.248 1.075 2.259 2.4 2.259 1.326 0 2.4-1.011 2.4-2.259 0-.264-.048-.517-.136-.753a2.25 2.25 0 0 0-.6-.874l.736-1.384ZM4 9.376a1 1 0 0 1 .8-.98c.006.085.041.17.108.237l5.744 5.767H5a1 1 0 0 1-1-1V9.375Zm8 4.024a1 1 0 0 1-.443.83.376.376 0 0 0-.065-.088L5.748 8.376H11a1 1 0 0 1 1 1V13.4Z" fill="#fff"/></svg>