<svg width="16" height="16" fill="none" xmlns="http://www.w3.org/2000/svg"><path fill-rule="evenodd" clip-rule="evenodd" d="M4.824 2.556c0 .859-.685 1.555-1.53 1.555s-1.53-.696-1.53-1.555c0-.86.685-1.556 1.53-1.556s1.53.696 1.53 1.556Zm-.002 2.276a.77.77 0 0 0-.763-.72h-1.53a.771.771 0 0 0-.764.777v3.889h-.376a.389.389 0 1 0 0 .778h8.023v4.666c0 .43.342.778.764.778a.771.771 0 0 0 .765-.778c0 .43.342.778.765.778a.771.771 0 0 0 .765-.778V9.556h1.14a.389.389 0 1 0 0-.778h-.943l.745-1.767c.161-.384.11-.826-.137-1.16l-.82-1.11a.769.769 0 0 0-.75-.63h-.765c.845 0 1.53-.696 1.53-1.555 0-.86-.685-1.556-1.53-1.556s-1.53.696-1.53 1.556c0 .859.686 1.555 1.53 1.555h-.764a.769.769 0 0 0-.753.637l-2.62 3.807a.392.392 0 0 0-.069.223H4.824V6.23c.205.132.458.213.764.213.561 0 .978-.378 1.255-.729.214-.272.385-.581.51-.826h.53V2.556h-1.53v2.333h.124c-.07.117-.147.233-.231.34-.234.297-.454.438-.658.438a.592.592 0 0 1-.512-.24c-.117-.153-.195-.364-.254-.595Zm2.762 3.946h1.828V6.123L7.584 8.778Zm4.887-2.722v1.216l.239-.567a.394.394 0 0 0-.046-.387l-.193-.262Z" fill="#fff"/></svg>