<svg width="16" height="16" fill="none" xmlns="http://www.w3.org/2000/svg"><path fill-rule="evenodd" clip-rule="evenodd" d="m14.617 3.632-2.831-.057a.332.332 0 0 1-.32-.325L11.407.388a.301.301 0 0 1 .308-.312.332.332 0 0 1 .321.324l.042 2.095L14.459.09a.312.312 0 0 1 .444.009.32.32 0 0 1 .01.45l-2.38 2.406 2.071.042a.332.332 0 0 1 .321.325.301.301 0 0 1-.308.311ZM7.933 11.79c2.088 0 3.78-1.712 3.78-3.823 0-2.112-1.692-3.823-3.78-3.823s-3.78 1.711-3.78 3.823c0 2.111 1.692 3.823 3.78 3.823Zm0 1.912c3.132 0 5.67-2.568 5.67-5.735 0-3.167-2.538-5.735-5.67-5.735A5.606 5.606 0 0 0 4.49 3.408a.33.33 0 0 0 .044-.158L4.592.388a.301.301 0 0 0-.308-.312.332.332 0 0 0-.321.324L3.92 2.495 1.541.09a.312.312 0 0 0-.444.009.32.32 0 0 0-.01.45l2.38 2.406-2.071.042a.332.332 0 0 0-.321.325.301.301 0 0 0 .308.311l2.831-.057c.03-.001.06-.006.088-.015a5.748 5.748 0 0 0-2.04 4.406c0 3.167 2.539 5.735 5.67 5.735Zm-6.55-1.333 2.831.057a.332.332 0 0 1 .321.325l.057 2.863a.301.301 0 0 1-.308.311.332.332 0 0 1-.321-.324l-.042-2.095-2.38 2.406a.312.312 0 0 1-.444-.009.32.32 0 0 1-.01-.45l2.38-2.406-2.071-.042a.332.332 0 0 1-.321-.325.301.301 0 0 1 .308-.311Zm10.335.057 2.831-.057a.301.301 0 0 1 .309.311.332.332 0 0 1-.321.325l-2.072.042 2.38 2.406a.32.32 0 0 1-.01.45.312.312 0 0 1-.444.01l-2.38-2.407-.041 2.095a.332.332 0 0 1-.321.324.301.301 0 0 1-.308-.311l.057-2.863a.332.332 0 0 1 .32-.325Z" fill="#fff"/></svg>