<svg width="16" height="16" fill="none" xmlns="http://www.w3.org/2000/svg"><path d="M5.675 5c.463 0 .773.475.587.9l-1.979 4.502a1 1 0 0 1-.915.598h-.086a1 1 0 0 1-.916-.599L.427 5.976a.696.696 0 1 1 1.278-.556l1.672 3.866 1.711-3.902A.641.641 0 0 1 5.675 5ZM7.514 5.705a.705.705 0 1 1 1.41 0v4.59a.705.705 0 0 1-1.41 0v-4.59ZM13.354 5c.54 0 1.007.089 1.402.266.4.177.707.428.922.754.215.326.322.711.322 1.157 0 .44-.107.826-.322 1.157a2.077 2.077 0 0 1-.922.755c-.395.171-.862.257-1.402.257h-1.227v.95a.705.705 0 0 1-1.41 0V6a1 1 0 0 1 1-1h1.637Zm-.078 3.214c.424 0 .746-.088.966-.265.22-.183.33-.44.33-.772 0-.337-.11-.594-.33-.771-.22-.183-.542-.275-.966-.275h-1.149v2.083h1.15Z" fill="#fff"/></svg>